<svg width="12" height="18" xmlns="http://www.w3.org/2000/svg" xmlns:xlink="http://www.w3.org/1999/xlink"><defs><path d="M2 1a1 1 0 0 0-1 1v14a1 1 0 0 0 1 1h8a1 1 0 0 0 1-1V2a1 1 0 0 0-1-1H2zm0-1h8a2 2 0 0 1 2 2v14a2 2 0 0 1-2 2H2a2 2 0 0 1-2-2V2a2 2 0 0 1 2-2zM1 3h10v1H1V3zm0 9h10v1H1v-1zm5 4a1 1 0 1 1 0-2 1 1 0 0 1 0 2z" id="a"/></defs><g fill="none" fill-rule="evenodd"><mask id="b" fill="#fff"><use xlink:href="#a"/></mask><use fill="#5C677D" fill-rule="nonzero" xlink:href="#a"/><g mask="url(#b)" fill="#5C677D"><path d="M-4-1h20v20H-4z"/></g></g></svg>