<svg width="14" height="18" xmlns="http://www.w3.org/2000/svg" xmlns:xlink="http://www.w3.org/1999/xlink"><defs><path d="M2.5 7V5a4.5 4.5 0 0 1 9 0v2h.5a2 2 0 0 1 2 2v7a2 2 0 0 1-2 2H2a2 2 0 0 1-2-2V9a2 2 0 0 1 2-2h.5zm1 0h7V5a3.5 3.5 0 0 0-7 0v2zM2 8a1 1 0 0 0-1 1v7a1 1 0 0 0 1 1h10a1 1 0 0 0 1-1V9a1 1 0 0 0-1-1H2zm4.5 3a.5.5 0 1 1 1 0v3a.5.5 0 1 1-1 0v-3z" id="a"/></defs><g fill="none" fill-rule="evenodd"><mask id="b" fill="#fff"><use xlink:href="#a"/></mask><use fill="#5C677D" fill-rule="nonzero" xlink:href="#a"/><g mask="url(#b)" fill="#5C677D"><path d="M-3 0h20v20H-3z"/></g></g></svg>